<svg width="14" height="16" viewBox="0 0 14 16" fill="none" xmlns="http://www.w3.org/2000/svg">
<path d="M1.32251 9.88983V10.5015C1.32256 10.6314 1.35399 10.7594 1.41412 10.8745C1.47425 10.9897 1.56131 11.0886 1.66787 11.1629L4.09236 8.73836L3.4202 8.06619C3.40221 8.04824 3.38087 8.03398 3.35737 8.02424C3.33388 8.0145 3.3087 8.00949 3.28327 8.00949C3.25784 8.00949 3.23266 8.0145 3.20917 8.02424C3.18568 8.03398 3.16433 8.04824 3.14635 8.06619L1.32251 9.88983Z" fill="url(#paint0_linear_8_17)"/>
<path d="M3.28304 7.27256C3.36432 7.27235 3.44483 7.28821 3.51992 7.31938C3.595 7.35048 3.66316 7.3962 3.72046 7.4538L4.54841 8.28175L6.24833 6.58182C6.42466 6.40579 6.66363 6.30692 6.91278 6.30692C7.16192 6.30692 7.40091 6.40579 7.57722 6.58182L9.94089 8.94549L10.6714 8.21495C10.7876 8.09911 10.9448 8.03406 11.1089 8.03406C11.2728 8.03406 11.4301 8.09911 11.5462 8.21495L12.5031 9.17266V4.97783C12.5031 4.83619 12.4658 4.69704 12.3949 4.57437C12.3241 4.45171 12.2223 4.34985 12.0996 4.27902L7.31624 1.51731C7.19358 1.44647 7.05436 1.40918 6.91271 1.40918C6.77104 1.40918 6.63187 1.44647 6.50917 1.51731L1.72574 4.27902C1.60307 4.34985 1.5012 4.45171 1.43037 4.57437C1.35953 4.69704 1.32223 4.83619 1.3222 4.97783V8.97687L2.84535 7.45373C2.90269 7.39606 2.97091 7.35034 3.04603 7.31931C3.12117 7.28821 3.20173 7.27228 3.28304 7.27256Z" fill="url(#paint1_linear_8_17)"/>
<path d="M10.3972 9.40223L12.1575 11.1628C12.2641 11.0885 12.3511 10.9896 12.4112 10.8744C12.4713 10.7593 12.5027 10.6313 12.5028 10.5015V10.0854L11.2452 8.82782C11.2089 8.7915 11.1596 8.77112 11.1083 8.77112C11.0569 8.77112 11.0076 8.7915 10.9713 8.82782L10.3972 9.40223Z" fill="url(#paint2_linear_8_17)"/>
<path d="M9.94075 9.85852L9.48441 9.40225L7.12073 7.03865C7.06556 6.98354 6.99083 6.95264 6.91287 6.95264C6.83493 6.95264 6.76017 6.98354 6.70502 7.03865L5.00509 8.73857L4.54868 9.19499L2.24414 11.4992L6.5091 13.9618C6.63178 14.0326 6.77096 14.0699 6.91263 14.0699C7.05429 14.0699 7.19351 14.0326 7.31617 13.9618L11.5811 11.4992L9.94075 9.85852Z" fill="url(#paint3_linear_8_17)"/>
<path d="M6.91285 0.667365C7.07106 0.667321 7.22656 0.708957 7.36355 0.788077L12.7075 3.87346C12.8446 3.95258 12.9584 4.06638 13.0375 4.20342C13.1166 4.34046 13.1583 4.49592 13.1583 4.65416V10.8249C13.1583 10.9831 13.1166 11.1386 13.0375 11.2756C12.9584 11.4126 12.8446 11.5264 12.7075 11.6055L7.36355 14.6909C7.22649 14.77 7.07106 14.8117 6.91281 14.8117C6.75457 14.8117 6.59911 14.77 6.46207 14.6909L1.11807 11.6055C0.981037 11.5264 0.86724 11.4126 0.788126 11.2756C0.709012 11.1386 0.667361 10.9831 0.667365 10.8249V4.65416C0.667363 4.49592 0.709012 4.34046 0.788126 4.20342C0.867247 4.06638 0.981037 3.95258 1.11807 3.87346L6.46207 0.788077C6.59912 0.708964 6.7546 0.667329 6.91285 0.667365ZM6.91285 0C6.63748 0.000107539 6.36698 0.0725912 6.12846 0.210186L0.78439 3.29556C0.546202 3.43359 0.348401 3.6317 0.210755 3.8701C0.0731095 4.10852 0.000437351 4.37887 0 4.65416V10.8249C0.000451424 11.1002 0.0731381 11.3706 0.210795 11.609C0.348453 11.8474 0.546263 12.0455 0.784459 12.1835L6.12846 15.2689C6.36695 15.4066 6.63747 15.479 6.91285 15.479C7.18822 15.479 7.45873 15.4066 7.69724 15.2689L13.0412 12.1835C13.2795 12.0455 13.4773 11.8474 13.615 11.609C13.7527 11.3706 13.8254 11.1002 13.8259 10.8249V4.65416C13.8255 4.37887 13.7528 4.10852 13.6152 3.87011C13.4775 3.6317 13.2797 3.43359 13.0415 3.29556L7.69751 0.210186C7.45901 0.0726002 7.1885 0.000117325 6.91312 0H6.91285Z" fill="url(#paint4_linear_8_17)"/>
<defs>
<linearGradient id="paint0_linear_8_17" x1="2.70743" y1="1.50708" x2="2.70743" y2="14.1208" gradientUnits="userSpaceOnUse">
<stop offset="0.004" stop-color="#4C99D4"/>
<stop offset="0.5" stop-color="#56C3E6"/>
<stop offset="1" stop-color="#B0D8BC"/>
</linearGradient>
<linearGradient id="paint1_linear_8_17" x1="6.91267" y1="1.51011" x2="6.91267" y2="14.1258" gradientUnits="userSpaceOnUse">
<stop offset="0.004" stop-color="#4C99D4"/>
<stop offset="0.5" stop-color="#56C3E6"/>
<stop offset="1" stop-color="#B0D8BC"/>
</linearGradient>
<linearGradient id="paint2_linear_8_17" x1="11.45" y1="1.50739" x2="11.45" y2="14.1214" gradientUnits="userSpaceOnUse">
<stop offset="0.004" stop-color="#4C99D4"/>
<stop offset="0.5" stop-color="#56C3E6"/>
<stop offset="1" stop-color="#B0D8BC"/>
</linearGradient>
<linearGradient id="paint3_linear_8_17" x1="6.91263" y1="1.50792" x2="6.91263" y2="14.1197" gradientUnits="userSpaceOnUse">
<stop offset="0.004" stop-color="#4C99D4"/>
<stop offset="0.5" stop-color="#56C3E6"/>
<stop offset="1" stop-color="#B0D8BC"/>
</linearGradient>
<linearGradient id="paint4_linear_8_17" x1="6.91295" y1="15.479" x2="6.91295" y2="0" gradientUnits="userSpaceOnUse">
<stop stop-color="#B0D8BC"/>
<stop offset="0.5" stop-color="#56C3E6"/>
<stop offset="0.996" stop-color="#4C99D4"/>
</linearGradient>
</defs>
</svg>
